<svg xmlns:xlink="http://www.w3.org/1999/xlink" version="1.1" class="highcharts-root" style="font-family:&quot;Lucida Grande&quot;, &quot;Lucida Sans Unicode&quot;, Arial, Helvetica, sans-serif;font-size:12px;" xmlns="http://www.w3.org/2000/svg" width="960" height="540" viewBox="0 0 960 540"><desc>Created with Highcharts 7.1.3</desc><defs><clipPath id="highcharts-42krkhb-48-"><rect x="0" y="0" width="940" height="394" fill="none"></rect></clipPath></defs><rect fill="#ffffff" class="highcharts-background" x="0" y="0" width="960" height="540" rx="0" ry="0"></rect><rect fill="none" class="highcharts-plot-background" x="10" y="10" width="940" height="394"></rect><g class="highcharts-pane-group" data-z-index="0"></g><rect fill="none" class="highcharts-plot-border" data-z-index="1" x="10" y="10" width="940" height="394"></rect><g class="highcharts-series-group" data-z-index="3"><g data-z-index="0.1" class="highcharts-series highcharts-series-0 highcharts-pie-series " transform="translate(10,10) scale(1 1)"><path fill="#7cb5ec" d="M 469.961913110909 10.000003878639404 A 187 187 0 0 1 630.0056675883312 293.78422567553275 L 470 197 A 0 0 0 0 0 470 197 Z" transform="translate(0,0)" stroke="#ffffff" stroke-width="1" opacity="1" stroke-dasharray="none" stroke-linejoin="round" class="highcharts-point highcharts-color-0"></path><path fill="#90ed7d" d="M 629.9088033759592 293.94418292434466 A 187 187 0 0 1 374.7878611202366 357.94610467464145 L 470 197 A 0 0 0 0 0 470 197 Z" transform="translate(0,0)" stroke="#ffffff" stroke-width="1" opacity="1" stroke-dasharray="none" stroke-linejoin="round" class="highcharts-point highcharts-color-1"></path><path fill="#f7a35c" d="M 374.6269626484518 357.8508120785848 A 187 187 0 0 1 306.1250502927525 287.0777489641427 L 470 197 A 0 0 0 0 0 470 197 Z" transform="translate(0,0)" stroke="#ffffff" stroke-width="1" opacity="1" stroke-dasharray="none" stroke-linejoin="round" class="highcharts-point highcharts-color-2"></path><path fill="#434348" d="M 306.03505449626937 286.9138290028772 A 187 187 0 0 1 283.700651924148 213.17259739536428 L 470 197 A 0 0 0 0 0 470 197 Z" transform="translate(0,0)" stroke="#ffffff" stroke-width="1" opacity="1" stroke-dasharray="none" stroke-linejoin="round" class="highcharts-point highcharts-color-3"></path><path fill="#8085e9" d="M 283.68457247911437 212.98628999204033 A 187 187 0 0 1 289.2087379876408 149.21381392098255 L 470 197 A 0 0 0 0 0 470 197 Z" transform="translate(0,0)" stroke="#ffffff" stroke-width="1" opacity="1" stroke-dasharray="none" stroke-linejoin="round" class="highcharts-point highcharts-color-4"></path><path fill="#f15c80" d="M 289.2566145613789 149.03304658219315 A 187 187 0 0 1 314.96949299267 92.43164007669333 L 470 197 A 0 0 0 0 0 470 197 Z" transform="translate(0,0)" stroke="#ffffff" stroke-width="1" opacity="1" stroke-dasharray="none" stroke-linejoin="round" class="highcharts-point highcharts-color-5"></path><path fill="#e4d354" d="M 315.0741388504123 92.27666187970003 A 187 187 0 0 1 343.02846256238183 59.71479074303912 L 470 197 A 0 0 0 0 0 470 197 Z" transform="translate(0,0)" stroke="#ffffff" stroke-width="1" opacity="1" stroke-dasharray="none" stroke-linejoin="round" class="highcharts-point highcharts-color-6"></path><path fill="#2b908f" d="M 343.16581123452136 59.58788786936236 A 187 187 0 0 1 364.35183110343587 42.70332340324674 L 470 197 A 0 0 0 0 0 470 197 Z" transform="translate(0,0)" stroke="#ffffff" stroke-width="1" opacity="1" stroke-dasharray="none" stroke-linejoin="round" class="highcharts-point highcharts-color-7"></path><path fill="#f45b5b" d="M 364.50618057839665 42.597752400290034 A 187 187 0 0 1 384.2468086520274 30.821210217314416 L 470 197 A 0 0 0 0 0 470 197 Z" transform="translate(0,0)" stroke="#ffffff" stroke-width="1" opacity="1" stroke-dasharray="none" stroke-linejoin="round" class="highcharts-point highcharts-color-8"></path><path fill="#91e8e1" d="M 384.4130302907058 30.73554012964658 A 187 187 0 0 1 400.22319952812813 23.50591331140828 L 470 197 A 0 0 0 0 0 470 197 Z" transform="translate(0,0)" stroke="#ffffff" stroke-width="1" opacity="1" stroke-dasharray="none" stroke-linejoin="round" class="highcharts-point highcharts-color-9"></path><path fill="#7cb5ec" d="M 400.3967284742984 23.436223269601953 A 187 187 0 0 1 415.91996530815885 17.99064312799385 L 470 197 A 0 0 0 0 0 470 197 Z" transform="translate(0,0)" stroke="#ffffff" stroke-width="1" opacity="1" stroke-dasharray="none" stroke-linejoin="round" class="highcharts-point highcharts-color-0"></path><path fill="#90ed7d" d="M 416.0990016752111 17.936652606986314 A 187 187 0 0 1 428.20820756733235 14.729744375927254 L 470 197 A 0 0 0 0 0 470 197 Z" transform="translate(0,0)" stroke="#ffffff" stroke-width="1" opacity="1" stroke-dasharray="none" stroke-linejoin="round" class="highcharts-point highcharts-color-1"></path><path fill="#f7a35c" d="M 428.3904986884726 14.688043725580087 A 187 187 0 0 1 440.5049466468952 12.340741288996014 L 470 197 A 0 0 0 0 0 470 197 Z" transform="translate(0,0)" stroke="#ffffff" stroke-width="1" opacity="1" stroke-dasharray="none" stroke-linejoin="round" class="highcharts-point highcharts-color-2"></path><path fill="#434348" d="M 440.68962062235516 12.311338570180425 A 187 187 0 0 1 451.07272746156934 10.960331234825162 L 470 197 A 0 0 0 0 0 470 197 Z" transform="translate(0,0)" stroke="#ffffff" stroke-width="1" opacity="1" stroke-dasharray="none" stroke-linejoin="round" class="highcharts-point highcharts-color-3"></path><path fill="#8085e9" d="M 451.2587765629634 10.941496985267918 A 187 187 0 0 1 457.7809725344468 10.399637278498176 L 470 197 A 0 0 0 0 0 470 197 Z" transform="translate(0,0)" stroke="#ffffff" stroke-width="1" opacity="1" stroke-dasharray="none" stroke-linejoin="round" class="highcharts-point highcharts-color-4"></path><path fill="#f15c80" d="M 457.9675789755815 10.387511553242689 A 187 187 0 0 1 464.31813528662315 10.086339682250923 L 470 197 A 0 0 0 0 0 470 197 Z" transform="translate(0,0)" stroke="#ffffff" stroke-width="1" opacity="1" stroke-dasharray="none" stroke-linejoin="round" class="highcharts-point highcharts-color-5"></path><path fill="#e4d354" d="M 464.5050517567208 10.080751275306909 A 187 187 0 0 1 466.9353978637093 10.025113414270947 L 470 197 A 0 0 0 0 0 470 197 Z" transform="translate(0,0)" stroke="#ffffff" stroke-width="1" opacity="1" stroke-dasharray="none" stroke-linejoin="round" class="highcharts-point highcharts-color-6"></path><path fill="#2b908f" d="M 467.1223742514335 10.02214230008093 A 187 187 0 0 1 468.2442864635502 10.008242240525675 L 470 197 A 0 0 0 0 0 470 197 Z" transform="translate(0,0)" stroke="#ffffff" stroke-width="1" opacity="1" stroke-dasharray="none" stroke-linejoin="round" class="highcharts-point highcharts-color-7"></path><path fill="#f45b5b" d="M 468.4312790680012 10.006580023152935 A 187 187 0 0 1 468.9922655457006 10.002715337174976 L 470 197 A 0 0 0 0 0 470 197 Z" transform="translate(0,0)" stroke="#ffffff" stroke-width="1" opacity="1" stroke-dasharray="none" stroke-linejoin="round" class="highcharts-point highcharts-color-8"></path><path fill="#91e8e1" d="M 469.1792633030645 10.00180110152317 A 187 187 0 0 1 469.55326109300336 10.000533625496729 L 470 197 A 0 0 0 0 0 470 197 Z" transform="translate(0,0)" stroke="#ffffff" stroke-width="1" opacity="1" stroke-dasharray="none" stroke-linejoin="round" class="highcharts-point highcharts-color-9"></path><path fill="#7cb5ec" d="M 469.74026075158076 10.000180386389587 A 187 187 0 0 1 469.7402607515806 10.000180386389587 L 470 197 A 0 0 0 0 0 470 197 Z" transform="translate(0,0)" stroke="#ffffff" stroke-width="1" opacity="1" stroke-dasharray="none" stroke-linejoin="round" class="highcharts-point highcharts-color-0"></path></g><g data-z-index="0.1" class="highcharts-markers highcharts-series-0 highcharts-pie-series " transform="translate(10,10) scale(1 1)"></g></g><text x="480" text-anchor="middle" class="highcharts-title" data-z-index="4" style="color:#333333;font-size:18px;fill:#333333;" y="24"></text><text x="480" text-anchor="middle" class="highcharts-subtitle" data-z-index="4" style="color:#666666;fill:#666666;" y="24"></text><g class="highcharts-legend" data-z-index="7" transform="translate(104,416)"><rect fill="none" class="highcharts-legend-box" rx="0" ry="0" x="0" y="0" width="752" height="109" visibility="visible"></rect><g data-z-index="1"><g><g class="highcharts-legend-item highcharts-pie-series highcharts-color-0" data-z-index="1" transform="translate(8,3)"><text x="21" style="color:#333333;cursor:pointer;font-size:12px;font-weight:bold;fill:#333333;" text-anchor="start" data-z-index="2" y="15"><tspan>occupied Palestinian territory</tspan></text><rect x="2" y="4" width="12" height="12" fill="#7cb5ec" class="highcharts-point" data-z-index="3"></rect></g><g class="highcharts-legend-item highcharts-pie-series highcharts-color-1" data-z-index="1" transform="translate(260.09375,3)"><text x="21" y="15" style="color:#333333;cursor:pointer;font-size:12px;font-weight:bold;fill:#333333;" text-anchor="start" data-z-index="2"><tspan>Ukraine</tspan></text><rect x="2" y="4" width="12" height="12" fill="#90ed7d" class="highcharts-point" data-z-index="3"></rect></g><g class="highcharts-legend-item highcharts-pie-series highcharts-color-2" data-z-index="1" transform="translate(512.1875,3)"><text x="21" y="15" style="color:#333333;cursor:pointer;font-size:12px;font-weight:bold;fill:#333333;" text-anchor="start" data-z-index="2"><tspan>Democratic Republic of the Congo</tspan></text><rect x="2" y="4" width="12" height="12" fill="#f7a35c" class="highcharts-point" data-z-index="3"></rect></g><g class="highcharts-legend-item highcharts-pie-series highcharts-color-3" data-z-index="1" transform="translate(8,17)"><text x="21" y="15" style="color:#333333;cursor:pointer;font-size:12px;font-weight:bold;fill:#333333;" text-anchor="start" data-z-index="2"><tspan>Myanmar</tspan></text><rect x="2" y="4" width="12" height="12" fill="#434348" class="highcharts-point" data-z-index="3"></rect></g><g class="highcharts-legend-item highcharts-pie-series highcharts-color-4" data-z-index="1" transform="translate(260.09375,17)"><text x="21" y="15" style="color:#333333;cursor:pointer;font-size:12px;font-weight:bold;fill:#333333;" text-anchor="start" data-z-index="2"><tspan>Afghanistan</tspan></text><rect x="2" y="4" width="12" height="12" fill="#8085e9" class="highcharts-point" data-z-index="3"></rect></g><g class="highcharts-legend-item highcharts-pie-series highcharts-color-5" data-z-index="1" transform="translate(512.1875,17)"><text x="21" y="15" style="color:#333333;cursor:pointer;font-size:12px;font-weight:bold;fill:#333333;" text-anchor="start" data-z-index="2"><tspan>Syrian Arab Republic</tspan></text><rect x="2" y="4" width="12" height="12" fill="#f15c80" class="highcharts-point" data-z-index="3"></rect></g><g class="highcharts-legend-item highcharts-pie-series highcharts-color-6" data-z-index="1" transform="translate(8,31)"><text x="21" y="15" style="color:#333333;cursor:pointer;font-size:12px;font-weight:bold;fill:#333333;" text-anchor="start" data-z-index="2"><tspan>Central African Republic</tspan></text><rect x="2" y="4" width="12" height="12" fill="#e4d354" class="highcharts-point" data-z-index="3"></rect></g><g class="highcharts-legend-item highcharts-pie-series highcharts-color-7" data-z-index="1" transform="translate(260.09375,31)"><text x="21" y="15" style="color:#333333;cursor:pointer;font-size:12px;font-weight:bold;fill:#333333;" text-anchor="start" data-z-index="2"><tspan>Libya</tspan></text><rect x="2" y="4" width="12" height="12" fill="#2b908f" class="highcharts-point" data-z-index="3"></rect></g><g class="highcharts-legend-item highcharts-pie-series highcharts-color-8" data-z-index="1" transform="translate(512.1875,31)"><text x="21" y="15" style="color:#333333;cursor:pointer;font-size:12px;font-weight:bold;fill:#333333;" text-anchor="start" data-z-index="2"><tspan>Sudan</tspan></text><rect x="2" y="4" width="12" height="12" fill="#f45b5b" class="highcharts-point" data-z-index="3"></rect></g><g class="highcharts-legend-item highcharts-pie-series highcharts-color-9" data-z-index="1" transform="translate(8,45)"><text x="21" y="15" style="color:#333333;cursor:pointer;font-size:12px;font-weight:bold;fill:#333333;" text-anchor="start" data-z-index="2"><tspan>Yemen</tspan></text><rect x="2" y="4" width="12" height="12" fill="#91e8e1" class="highcharts-point" data-z-index="3"></rect></g><g class="highcharts-legend-item highcharts-pie-series highcharts-color-0" data-z-index="1" transform="translate(260.09375,45)"><text x="21" y="15" style="color:#333333;cursor:pointer;font-size:12px;font-weight:bold;fill:#333333;" text-anchor="start" data-z-index="2"><tspan>Nigeria</tspan></text><rect x="2" y="4" width="12" height="12" fill="#7cb5ec" class="highcharts-point" data-z-index="3"></rect></g><g class="highcharts-legend-item highcharts-pie-series highcharts-color-1" data-z-index="1" transform="translate(512.1875,45)"><text x="21" y="15" style="color:#333333;cursor:pointer;font-size:12px;font-weight:bold;fill:#333333;" text-anchor="start" data-z-index="2"><tspan>Israel</tspan></text><rect x="2" y="4" width="12" height="12" fill="#90ed7d" class="highcharts-point" data-z-index="3"></rect></g><g class="highcharts-legend-item highcharts-pie-series highcharts-color-2" data-z-index="1" transform="translate(8,59)"><text x="21" y="15" style="color:#333333;cursor:pointer;font-size:12px;font-weight:bold;fill:#333333;" text-anchor="start" data-z-index="2"><tspan>Mali</tspan></text><rect x="2" y="4" width="12" height="12" fill="#f7a35c" class="highcharts-point" data-z-index="3"></rect></g><g class="highcharts-legend-item highcharts-pie-series highcharts-color-3" data-z-index="1" transform="translate(260.09375,59)"><text x="21" y="15" style="color:#333333;cursor:pointer;font-size:12px;font-weight:bold;fill:#333333;" text-anchor="start" data-z-index="2"><tspan>Burkina Faso</tspan></text><rect x="2" y="4" width="12" height="12" fill="#434348" class="highcharts-point" data-z-index="3"></rect></g><g class="highcharts-legend-item highcharts-pie-series highcharts-color-4" data-z-index="1" transform="translate(512.1875,59)"><text x="21" y="15" style="color:#333333;cursor:pointer;font-size:12px;font-weight:bold;fill:#333333;" text-anchor="start" data-z-index="2"><tspan>Iraq</tspan></text><rect x="2" y="4" width="12" height="12" fill="#8085e9" class="highcharts-point" data-z-index="3"></rect></g><g class="highcharts-legend-item highcharts-pie-series highcharts-color-5" data-z-index="1" transform="translate(8,73)"><text x="21" y="15" style="color:#333333;cursor:pointer;font-size:12px;font-weight:bold;fill:#333333;" text-anchor="start" data-z-index="2"><tspan>South Sudan</tspan></text><rect x="2" y="4" width="12" height="12" fill="#f15c80" class="highcharts-point" data-z-index="3"></rect></g><g class="highcharts-legend-item highcharts-pie-series highcharts-color-6" data-z-index="1" transform="translate(260.09375,73)"><text x="21" y="15" style="color:#333333;cursor:pointer;font-size:12px;font-weight:bold;fill:#333333;" text-anchor="start" data-z-index="2"><tspan>Haiti</tspan></text><rect x="2" y="4" width="12" height="12" fill="#e4d354" class="highcharts-point" data-z-index="3"></rect></g><g class="highcharts-legend-item highcharts-pie-series highcharts-color-7" data-z-index="1" transform="translate(512.1875,73)"><text x="21" y="15" style="color:#333333;cursor:pointer;font-size:12px;font-weight:bold;fill:#333333;" text-anchor="start" data-z-index="2"><tspan>Somalia</tspan></text><rect x="2" y="4" width="12" height="12" fill="#2b908f" class="highcharts-point" data-z-index="3"></rect></g><g class="highcharts-legend-item highcharts-pie-series highcharts-color-8" data-z-index="1" transform="translate(8,87)"><text x="21" y="15" style="color:#333333;cursor:pointer;font-size:12px;font-weight:bold;fill:#333333;" text-anchor="start" data-z-index="2"><tspan>Lebanon</tspan></text><rect x="2" y="4" width="12" height="12" fill="#f45b5b" class="highcharts-point" data-z-index="3"></rect></g><g class="highcharts-legend-item highcharts-pie-series highcharts-color-9" data-z-index="1" transform="translate(260.09375,87)"><text x="21" y="15" style="color:#333333;cursor:pointer;font-size:12px;font-weight:bold;fill:#333333;" text-anchor="start" data-z-index="2"><tspan>Armenia</tspan></text><rect x="2" y="4" width="12" height="12" fill="#91e8e1" class="highcharts-point" data-z-index="3"></rect></g><g class="highcharts-legend-item highcharts-pie-series highcharts-color-0" data-z-index="1" transform="translate(512.1875,87)"><text x="21" y="15" style="color:#333333;cursor:pointer;font-size:12px;font-weight:bold;fill:#333333;" text-anchor="start" data-z-index="2"><tspan>Nagorno-Karabakh</tspan></text><rect x="2" y="4" width="12" height="12" fill="#7cb5ec" class="highcharts-point" data-z-index="3"></rect></g></g></g></g></svg>